<svg viewBox="0 0 24 31" xmlns="http://www.w3.org/2000/svg"><path d="M.14 27.143h23.337c0 1.876-1.084 3.093-2.321 3.092H2.461c-1.033 0-2.321-.98-2.321-3.092zm3.697-4.155V10.416h15.67c2.4 0 4.463 2.36 4.463 5.237 0 2.818-2.105 5.237-5.001 5.237v2.098c0 1.405-1.002 2.774-2.469 2.774H6.34c-1.301 0-2.503-1.225-2.503-2.774zm15.671-10.424l-.539-.002v6.156c2.064.148 3.153-1.419 3.153-3.06.007-1.005-.63-3.094-2.614-3.094zm-6.97-2.893s-4.826-.285-2.614-3.564C11.7 3.474 11.294 1.93 9.022.534c0 0 7.444 1.528 3.103 6.256-1.593 2.06.413 2.881.413 2.881zm3.072-.262s-3.867-.657-1.762-3.162c.764-1.087-.29-1.475-.29-1.475s2.49.064 1.439 1.787c-.842 1.385-.592 2.172.613 2.85z" fill="currentColor" fill-rule="nonzero"/></svg>
