<svg width="35" height="23" xmlns="http://www.w3.org/2000/svg">
<g fill="currentColor" fill-rule="evenodd">
<path d="M34.11 10.75h-1.49L32.02 9h2.09c.49 0 .89-.39.89-.88 0-.48-.4-.87-.89-.87h-2.68l-1.22-3.59C29.9 2.75 28.84 2 27.86 2H17.14c-.98 0-2.04.75-2.35 1.66l-1.22 3.59h-2.68c-.49 0-.89.39-.89.87 0 .49.4.88.89.88h2.09l-.6 1.75h-1.49c-.49 0-.89.39-.89.87v5.25c0 .49.4.88.89.88h.9v3.5c0 .97.79 1.75 1.78 1.75h1.79c.98 0 1.78-.78 1.78-1.75v-3.5h10.72v3.5c0 .97.8 1.75 1.78 1.75h1.79c.99 0 1.78-.78 1.78-1.75v-3.5h.9c.49 0 .89-.39.89-.88v-5.25c0-.48-.4-.87-.89-.87zM16.49 4.21c.06-.19.44-.46.65-.46h3.57v.88c0 .48.4.87.9.87h1.78c.5 0 .9-.39.9-.87v-.88h3.57c.21 0 .59.27.65.46l2.23 6.54H14.26l2.23-6.54zM15.36 16c-.99 0-1.79-.78-1.79-1.75s.8-1.75 1.79-1.75c.98 0 1.78.78 1.78 1.75S16.34 16 15.36 16zm10.71 0h-7.14v-1.75h7.14V16zm3.57 0c-.98 0-1.78-.78-1.78-1.75s.8-1.75 1.78-1.75c.99 0 1.79.78 1.79 1.75S30.63 16 29.64 16z" fill-rule="nonzero"/>
<path d="M5.376 9.276c.144-.254.216-.548.216-.882 0-.529-.194-.93-.584-1.206-.224-.16-.6-.313-1.13-.457v3.339c.724-.034 1.223-.298 1.498-.794zM2.142 4.928c.278.237.651.402 1.12.495V2.44c-.554.021-.948.19-1.183.508-.235.317-.352.65-.352.996 0 .42.138.747.415.984zm-.85-2.647c.472-.516 1.133-.778 1.983-.787V.65h.603v.831c.843.06 1.489.308 1.94.746.45.438.686 1.017.707 1.736h-1.11a1.888 1.888 0 0 0-.26-.831c-.267-.428-.693-.652-1.277-.673v3.085c.982.275 1.649.533 2 .774.571.398.857.986.857 1.765 0 1.126-.366 1.925-1.098 2.4-.407.262-.993.435-1.759.52v1.231h-.603v-1.231c-1.231-.08-2.067-.516-2.507-1.308C.527 9.268.406 8.69.406 7.962H1.53c.034.58.125 1.003.273 1.27.262.478.749.747 1.46.806v-3.46c-.914-.173-1.59-.463-2.025-.869-.436-.406-.654-.97-.654-1.688 0-.644.236-1.223.708-1.74z"/>
</g>
</svg>