<svg xmlns="http://www.w3.org/2000/svg" width="25" height="21">
<path fill="currentColor" d="M24.11 8.75h-1.49L22.02 7h2.09c.49 0 .89-.39.89-.88 0-.48-.4-.87-.89-.87h-2.68l-1.22-3.59C19.9.75 18.84 0 17.86 0H7.14C6.16 0 5.1.75 4.79 1.66L3.57 5.25H.89c-.49 0-.89.39-.89.87 0 .49.4.88.89.88h2.09l-.6 1.75H.89c-.49 0-.89.39-.89.87v5.25c0 .49.4.88.89.88h.9v3.5c0 .97.79 1.75 1.78 1.75h1.79c.98 0 1.78-.78 1.78-1.75v-3.5h10.72v3.5c0 .97.8 1.75 1.78 1.75h1.79c.99 0 1.78-.78 1.78-1.75v-3.5h.9c.49 0 .89-.39.89-.88V9.62c0-.48-.4-.87-.89-.87zM6.49 2.21c.06-.19.44-.46.65-.46h3.57v.88c0 .48.4.87.9.87h1.78c.5 0 .9-.39.9-.87v-.88h3.57c.21 0 .59.27.65.46l2.23 6.54H4.26l2.23-6.54zM5.36 14c-.99 0-1.79-.78-1.79-1.75s.8-1.75 1.79-1.75c.98 0 1.78.78 1.78 1.75S6.34 14 5.36 14zm10.71 0H8.93v-1.75h7.14V14zm3.57 0c-.98 0-1.78-.78-1.78-1.75s.8-1.75 1.78-1.75c.99 0 1.79.78 1.79 1.75S20.63 14 19.64 14z"/>
</svg>